REM DIRINDEX 1\2,1\3,1\4
REM DIRNAME folder01,folder02,folder03,folder04
TITLE ""
FILE "098 098_TOEFL_3900.mp3" MP3
  TRACK 01 AUDIO
    TITLE "2:cjc151_4267"
    INDEX 01 00:00:00
  TRACK 02 AUDIO
    TITLE "0:"
    INDEX 01 00:01:07
  TRACK 03 AUDIO
    TITLE "3:cjc151_4268"
    INDEX 01 00:02:67
  TRACK 04 AUDIO
    TITLE "0:"
    INDEX 01 00:07:17
  TRACK 05 AUDIO
    TITLE "2:cjc151_4269"
    INDEX 01 00:08:70
  TRACK 06 AUDIO
    TITLE "0:"
    INDEX 01 00:09:67
  TRACK 07 AUDIO
    TITLE "3:cjc151_4270"
    INDEX 01 00:11:50
  TRACK 08 AUDIO
    TITLE "0:"
    INDEX 01 00:15:11
  TRACK 09 AUDIO
    TITLE "2:cjc151_4271"
    INDEX 01 00:16:61
  TRACK 10 AUDIO
    TITLE "0:"
    INDEX 01 00:17:57
  TRACK 11 AUDIO
    TITLE "3:cjc151_4272"
    INDEX 01 00:19:36
  TRACK 12 AUDIO
    TITLE "0:"
    INDEX 01 00:23:24
  TRACK 13 AUDIO
    TITLE "2:cjc151_4273"
    INDEX 01 00:25:03
  TRACK 14 AUDIO
    TITLE "0:"
    INDEX 01 00:26:40
  TRACK 15 AUDIO
    TITLE "3:cjc151_4274"
    INDEX 01 00:28:17
  TRACK 16 AUDIO
    TITLE "0:"
    INDEX 01 00:32:15
  TRACK 17 AUDIO
    TITLE "2:cjc151_4275"
    INDEX 01 00:33:69
  TRACK 18 AUDIO
    TITLE "0:"
    INDEX 01 00:34:71
  TRACK 19 AUDIO
    TITLE "3:cjc151_4276"
    INDEX 01 00:36:50
  TRACK 20 AUDIO
    TITLE "0:"
    INDEX 01 00:39:60
  TRACK 21 AUDIO
    TITLE "2:cjc151_4277"
    INDEX 01 00:41:40
  TRACK 22 AUDIO
    TITLE "0:"
    INDEX 01 00:42:63
  TRACK 23 AUDIO
    TITLE "3:cjc151_4278"
    INDEX 01 00:44:42
  TRACK 24 AUDIO
    TITLE "0:"
    INDEX 01 00:47:30
  TRACK 25 AUDIO
    TITLE "2:cjc151_4279"
    INDEX 01 00:49:10
  TRACK 26 AUDIO
    TITLE "0:"
    INDEX 01 00:50:11
  TRACK 27 AUDIO
    TITLE "3:cjc151_4280"
    INDEX 01 00:51:63
  TRACK 28 AUDIO
    TITLE "0:"
    INDEX 01 00:55:65
  TRACK 29 AUDIO
    TITLE "2:cjc151_4281"
    INDEX 01 00:57:45
  TRACK 30 AUDIO
    TITLE "0:"
    INDEX 01 00:58:40
  TRACK 31 AUDIO
    TITLE "3:cjc151_4282"
    INDEX 01 01:00:25
  TRACK 32 AUDIO
    TITLE "0:"
    INDEX 01 01:04:25
  TRACK 33 AUDIO
    TITLE "2:cjc151_4283"
    INDEX 01 01:06:10
  TRACK 34 AUDIO
    TITLE "0:"
    INDEX 01 01:07:04
  TRACK 35 AUDIO
    TITLE "3:cjc151_4284"
    INDEX 01 01:08:60
  TRACK 36 AUDIO
    TITLE "0:"
    INDEX 01 01:12:03
  TRACK 37 AUDIO
    TITLE "2:cjc151_4285"
    INDEX 01 01:13:57
  TRACK 38 AUDIO
    TITLE "0:"
    INDEX 01 01:14:53
  TRACK 39 AUDIO
    TITLE "3:cjc151_4286"
    INDEX 01 01:16:34
  TRACK 40 AUDIO
    TITLE "0:"
    INDEX 01 01:19:70
  TRACK 41 AUDIO
    TITLE "2:cjc151_4287"
    INDEX 01 01:21:49
  TRACK 42 AUDIO
    TITLE "0:"
    INDEX 01 01:22:48
  TRACK 43 AUDIO
    TITLE "3:cjc151_4288"
    INDEX 01 01:24:37
  TRACK 44 AUDIO
    TITLE "0:"
    INDEX 01 01:27:71
  TRACK 45 AUDIO
    TITLE "2:cjc151_4289"
    INDEX 01 01:29:52
  TRACK 46 AUDIO
    TITLE "0:"
    INDEX 01 01:31:02
  TRACK 47 AUDIO
    TITLE "3:cjc151_4290"
    INDEX 01 01:32:55
  TRACK 48 AUDIO
    TITLE "0:"
    INDEX 01 01:37:03
  TRACK 49 AUDIO
    TITLE "2:cjc151_4291"
    INDEX 01 01:38:61
  TRACK 50 AUDIO
    TITLE "0:"
    INDEX 01 01:39:74
  TRACK 51 AUDIO
    TITLE "3:cjc151_4292"
    INDEX 01 01:41:61
  TRACK 52 AUDIO
    TITLE "0:"
    INDEX 01 01:45:67
  TRACK 53 AUDIO
    TITLE "2:cjc151_4293"
    INDEX 01 01:47:44
  TRACK 54 AUDIO
    TITLE "0:"
    INDEX 01 01:48:58
  TRACK 55 AUDIO
    TITLE "3:cjc151_4294"
    INDEX 01 01:50:35
  TRACK 56 AUDIO
    TITLE "0:"
    INDEX 01 01:54:62
  TRACK 57 AUDIO
    TITLE "2:cjc151_4295"
    INDEX 01 01:56:41
  TRACK 58 AUDIO
    TITLE "0:"
    INDEX 01 01:57:62
  TRACK 59 AUDIO
    TITLE "3:cjc151_4296"
    INDEX 01 01:59:42
  TRACK 60 AUDIO
    TITLE "0:"
    INDEX 01 02:03:28
  TRACK 61 AUDIO
    TITLE "2:cjc151_4297"
    INDEX 01 02:05:07
  TRACK 62 AUDIO
    TITLE "0:"
    INDEX 01 02:06:14
  TRACK 63 AUDIO
    TITLE "3:cjc151_4298"
    INDEX 01 02:07:67
  TRACK 64 AUDIO
    TITLE "0:"
    INDEX 01 02:11:31
  TRACK 65 AUDIO
    TITLE "2:cjc151_4299"
    INDEX 01 02:13:12
  TRACK 66 AUDIO
    TITLE "0:"
    INDEX 01 02:14:14
  TRACK 67 AUDIO
    TITLE "3:cjc151_4300"
    INDEX 01 02:15:68
  TRACK 68 AUDIO
    TITLE "0:"
    INDEX 01 02:20:30
  TRACK 69 AUDIO
    TITLE "2:cjc151_4301"
    INDEX 01 02:22:09
  TRACK 70 AUDIO
    TITLE "0:"
    INDEX 01 02:23:27
  TRACK 71 AUDIO
    TITLE "3:cjc151_4302"
    INDEX 01 02:25:02
  TRACK 72 AUDIO
    TITLE "0:"
    INDEX 01 02:28:37
  TRACK 73 AUDIO
    TITLE "2:cjc151_4303"
    INDEX 01 02:30:17
  TRACK 74 AUDIO
    TITLE "0:"
    INDEX 01 02:31:28
  TRACK 75 AUDIO
    TITLE "3:cjc151_4304"
    INDEX 01 02:33:01
  TRACK 76 AUDIO
    TITLE "0:"
    INDEX 01 02:37:21
  TRACK 77 AUDIO
    TITLE "2:cjc151_4305"
    INDEX 01 02:39:02
  TRACK 78 AUDIO
    TITLE "0:"
    INDEX 01 02:40:09
  TRACK 79 AUDIO
    TITLE "3:cjc151_4306"
    INDEX 01 02:41:69
  TRACK 80 AUDIO
    TITLE "0:"
    INDEX 01 02:45:38
  TRACK 81 AUDIO
    TITLE "2:cjc151_4307"
    INDEX 01 02:47:17
  TRACK 82 AUDIO
    TITLE "0:"
    INDEX 01 02:48:21
  TRACK 83 AUDIO
    TITLE "3:cjc151_4308"
    INDEX 01 02:49:71
  TRACK 84 AUDIO
    TITLE "0:"
    INDEX 01 02:54:25
  TRACK 85 AUDIO
    TITLE "2:cjc151_4309"
    INDEX 01 02:56:10
  TRACK 86 AUDIO
    TITLE "0:"
    INDEX 01 02:57:23
  TRACK 87 AUDIO
    TITLE "3:cjc151_4310"
    INDEX 01 02:59:01
  TRACK 88 AUDIO
    TITLE "0:"
    INDEX 01 03:02:44
